<?xml version="1.0"?>
<svg xmlns="http://www.w3.org/2000/svg" height="512px" viewBox="0 0 448 448" width="512px"><path d="m224 24c-110.457031 0-200 89.542969-200 200s89.542969 200 200 200 200-89.542969 200-200c-.125-110.40625-89.59375-199.875-200-200zm130.113281 253.65625-122.113281-122.113281v196.457031h-16v-196.457031l-122.113281 122.113281-11.3125-11.3125 141.425781-141.421875 141.425781 141.421875zm0 0" fill="#FFFFFF"/><path d="m224 0c-123.710938 0-224 100.289062-224 224s100.289062 224 224 224 224-100.289062 224-224c-.140625-123.652344-100.347656-223.859375-224-224zm0 440c-119.292969 0-216-96.707031-216-216s96.707031-216 216-216 216 96.707031 216 216c-.132812 119.238281-96.761719 215.867188-216 216zm0 0" fill="#FFFFFF"/></svg>
